<svg width="21" height="20" viewBox="0 0 21 20" fill="none" xmlns="http://www.w3.org/2000/svg">
<g clip-path="url(#clip0_822_903)">
<path d="M10.4004 17.9004C14.5425 17.9004 17.9004 14.5425 17.9004 10.4004C17.9004 6.25826 14.5425 2.90039 10.4004 2.90039C6.25826 2.90039 2.90039 6.25826 2.90039 10.4004C2.90039 14.5425 6.25826 17.9004 10.4004 17.9004Z" stroke="white" stroke-width="1.5" stroke-linecap="round" stroke-linejoin="round"/>
<path d="M13.5254 7.27541H12.2754C12.0289 7.27437 11.7846 7.32217 11.5567 7.41603C11.3287 7.50989 11.1216 7.64796 10.9473 7.82228C10.773 7.99659 10.6349 8.2037 10.541 8.43165C10.4472 8.65961 10.3994 8.90389 10.4004 9.15041V17.9004" stroke="white" stroke-width="1.5" stroke-linecap="round" stroke-linejoin="round"/>
<path d="M7.90039 11.6504H12.9004" stroke="white" stroke-width="1.5" stroke-linecap="round" stroke-linejoin="round"/>
</g>
<defs>
<clipPath id="clip0_822_903">
<rect width="20" height="20" fill="white" transform="translate(0.400391)"/>
</clipPath>
</defs>
</svg>
