<svg width="66" height="66" viewBox="0 0 66 66" fill="none" xmlns="http://www.w3.org/2000/svg">
<rect x="0.5" y="0.5" width="65" height="65" rx="5.5" fill="#1C1C1C"/>
<g clip-path="url(#clip0_210_142)">
<path d="M62.2337 12H36.0607C35.4779 12 35.0054 12.4701 35.0054 13.05V17.88C35.0054 18.4599 35.4779 18.93 36.0607 18.93H62.2337C62.8166 18.93 63.2891 18.4599 63.2891 17.88V13.05C63.2891 12.4701 62.8166 12 62.2337 12Z" fill="white"/>
<path d="M63.3818 54H54.0946V42.534H44.2164V54H34.9292V24.012H44.2164V35.1H54.0946V24.012H63.3818V54Z" fill="white"/>
<path d="M29.0593 32.286C29.0593 36.038 27.9056 38.7539 25.5977 40.4339C23.3182 42.086 20.1944 42.9119 16.2262 42.9119C12.5957 42.9119 9.68294 42.0579 7.48778 40.35C5.32076 38.642 4.04025 36.0099 3.64625 32.454C3.56182 31.614 3.53368 30.984 3.56182 30.564L12.6802 29.766V30.606C12.6802 31.082 12.6942 31.446 12.7224 31.698C12.8912 33.014 13.243 34.008 13.7777 34.68C14.3125 35.352 15.1286 35.688 16.2262 35.688C17.3238 35.688 18.1399 35.352 18.6746 34.68C19.2375 33.98 19.5189 32.9859 19.5189 31.698V12.252H29.0593V32.286Z" fill="white"/>
<path d="M29.7284 47.0699H3.55536C2.9725 47.0699 2.5 47.54 2.5 48.1199V52.9499C2.5 53.5298 2.9725 53.9999 3.55536 53.9999H29.7284C30.3112 53.9999 30.7837 53.5298 30.7837 52.9499V48.1199C30.7837 47.54 30.3112 47.0699 29.7284 47.0699Z" fill="white"/>
</g>
<rect x="0.5" y="0.5" width="65" height="65" rx="5.5" stroke="white"/>
<defs>
<clipPath id="clip0_210_142">
<rect width="61" height="42" fill="white" transform="translate(2.5 12)"/>
</clipPath>
</defs>
</svg>
