<svg width="21" height="20" viewBox="0 0 21 20" fill="none" xmlns="http://www.w3.org/2000/svg">
<g clip-path="url(#clip0_822_897)">
<path d="M10.8008 13.0566C12.2678 13.0566 13.457 11.8674 13.457 10.4004C13.457 8.93338 12.2678 7.74414 10.8008 7.74414C9.33377 7.74414 8.14453 8.93338 8.14453 10.4004C8.14453 11.8674 9.33377 13.0566 10.8008 13.0566Z" stroke="white" stroke-width="1.5" stroke-linecap="round" stroke-linejoin="round"/>
<path d="M14.5508 2.90039H7.05078C4.97971 2.90039 3.30078 4.57932 3.30078 6.65039V14.1504C3.30078 16.2215 4.97971 17.9004 7.05078 17.9004H14.5508C16.6218 17.9004 18.3008 16.2215 18.3008 14.1504V6.65039C18.3008 4.57932 16.6218 2.90039 14.5508 2.90039Z" stroke="white" stroke-width="1.5" stroke-linecap="round" stroke-linejoin="round"/>
<path d="M14.8633 7.58789C15.5536 7.58789 16.1133 7.02825 16.1133 6.33789C16.1133 5.64753 15.5536 5.08789 14.8633 5.08789C14.1729 5.08789 13.6133 5.64753 13.6133 6.33789C13.6133 7.02825 14.1729 7.58789 14.8633 7.58789Z" fill="white"/>
</g>
<defs>
<clipPath id="clip0_822_897">
<rect width="20" height="20" fill="white" transform="translate(0.800781)"/>
</clipPath>
</defs>
</svg>
