<svg width="73" height="50" viewBox="0 0 73 50" fill="none" xmlns="http://www.w3.org/2000/svg">
<g clip-path="url(#clip0_895_1452)">
<path d="M71.4852 0H40.1634C39.4658 0 38.9004 0.559644 38.9004 1.25V7C38.9004 7.69036 39.4658 8.25 40.1634 8.25H71.4852C72.1827 8.25 72.7481 7.69036 72.7481 7V1.25C72.7481 0.559644 72.1827 0 71.4852 0Z" fill="#EEE9E1"/>
<path d="M72.8584 50H61.7442V36.35H49.9228V50H38.8086V14.3H49.9228V27.5H61.7442V14.3H72.8584V50Z" fill="#EEE9E1"/>
<path d="M31.7838 24.15C31.7838 28.6168 30.4031 31.85 27.6413 33.85C24.9134 35.8168 21.175 36.8 16.4262 36.8C12.0815 36.8 8.59571 35.7833 5.96872 33.75C3.3754 31.7168 1.84299 28.5833 1.37148 24.35C1.27044 23.35 1.23676 22.6 1.27044 22.1L12.1826 21.15V22.15C12.1826 22.7167 12.1994 23.15 12.2331 23.45C12.4352 25.0168 12.8561 26.2 13.4961 27C14.136 27.8 15.1127 28.2 16.4262 28.2C17.7397 28.2 18.7163 27.8 19.3563 27C20.0298 26.1668 20.3666 24.9834 20.3666 23.45V0.300049H31.7838V24.15Z" fill="#EEE9E1"/>
<path d="M32.5848 41.75H1.26298C0.565453 41.75 0 42.3096 0 43V48.75C0 49.4404 0.565453 50 1.26298 50H32.5848C33.2823 50 33.8478 49.4404 33.8478 48.75V43C33.8478 42.3096 33.2823 41.75 32.5848 41.75Z" fill="#EEE9E1"/>
</g>
<defs>
<clipPath id="clip0_895_1452">
<rect width="73" height="50" fill="white"/>
</clipPath>
</defs>
</svg>
