<svg width="21" height="20" viewBox="0 0 21 20" fill="none" xmlns="http://www.w3.org/2000/svg">
<g clip-path="url(#clip0_822_913)">
<path d="M10.6016 17.5C14.7437 17.5 18.1016 14.1421 18.1016 10C18.1016 5.85786 14.7437 2.5 10.6016 2.5C6.45943 2.5 3.10156 5.85786 3.10156 10C3.10156 14.1421 6.45943 17.5 10.6016 17.5Z" stroke="white" stroke-width="1.5" stroke-linecap="round" stroke-linejoin="round"/>
<path d="M3.53125 7.5H17.6719" stroke="white" stroke-width="1.5" stroke-linecap="round" stroke-linejoin="round"/>
<path d="M3.53125 12.5H17.6719" stroke="white" stroke-width="1.5" stroke-linecap="round" stroke-linejoin="round"/>
<path d="M10.6016 17.2969C12.3275 17.2969 13.7266 14.03 13.7266 10C13.7266 5.97005 12.3275 2.70312 10.6016 2.70312C8.87567 2.70312 7.47656 5.97005 7.47656 10C7.47656 14.03 8.87567 17.2969 10.6016 17.2969Z" stroke="white" stroke-width="1.5" stroke-linecap="round" stroke-linejoin="round"/>
</g>
<defs>
<clipPath id="clip0_822_913">
<rect width="20" height="20" fill="white" transform="translate(0.601562)"/>
</clipPath>
</defs>
</svg>
