<svg width="760" height="243" viewBox="0 0 760 243" fill="none" xmlns="http://www.w3.org/2000/svg">
<g clip-path="url(#clip0_990_194)">
<path d="M499.81 0H392.544C390.155 0 388.219 1.90279 388.219 4.25V23.8C388.219 26.1472 390.155 28.05 392.544 28.05H499.81C502.199 28.05 504.136 26.1472 504.136 23.8V4.25C504.136 1.90279 502.199 0 499.81 0Z" fill="white"/>
<path d="M504.517 170H466.455V123.59H425.97V170H387.908V48.6201H425.97V93.5001H466.455V48.6201H504.517V170Z" fill="white"/>
<path d="M363.85 82.11C363.85 97.297 359.121 108.29 349.663 115.09C340.321 121.777 327.518 125.12 311.255 125.12C296.376 125.12 284.438 121.663 275.442 114.75C266.561 107.837 261.313 97.1831 259.698 82.79C259.352 79.39 259.237 76.84 259.352 75.14L296.722 71.91V75.31C296.722 77.2367 296.78 78.71 296.895 79.73C297.587 85.057 299.029 89.08 301.22 91.8C303.412 94.52 306.757 95.88 311.255 95.88C315.753 95.88 319.098 94.52 321.29 91.8C323.596 88.967 324.75 84.9433 324.75 79.73V1.02002H363.85V82.11Z" fill="white"/>
<path d="M366.592 141.95H259.325C256.936 141.95 255 143.853 255 146.2V165.75C255 168.097 256.936 170 259.325 170H366.592C368.98 170 370.917 168.097 370.917 165.75V146.2C370.917 143.853 368.98 141.95 366.592 141.95Z" fill="white"/>
</g>
<path d="M2.508 224.189V208.877H6.732V223.925C6.732 225.663 7.194 226.994 8.118 227.918C9.042 228.842 10.351 229.304 12.045 229.304C13.761 229.304 15.081 228.842 16.005 227.918C16.929 226.972 17.391 225.641 17.391 223.925V208.877H21.615V224.189C21.615 226.059 21.219 227.687 20.427 229.073C19.657 230.437 18.557 231.504 17.127 232.274C15.697 233.022 14.003 233.396 12.045 233.396C10.109 233.396 8.426 233.022 6.996 232.274C5.566 231.526 4.455 230.459 3.663 229.073C2.893 227.687 2.508 226.059 2.508 224.189ZM31.0347 208.877V233H26.8107V208.877H31.0347ZM37.702 233H33.709L43.114 208.91H47.14L37.702 233ZM49.6555 224.189V208.877H53.8795V223.925C53.8795 225.663 54.3415 226.994 55.2655 227.918C56.1895 228.842 57.4985 229.304 59.1925 229.304C60.9085 229.304 62.2285 228.842 63.1525 227.918C64.0765 226.972 64.5385 225.641 64.5385 223.925V208.877H68.7625V224.189C68.7625 226.059 68.3665 227.687 67.5745 229.073C66.8045 230.437 65.7045 231.504 64.2745 232.274C62.8445 233.022 61.1505 233.396 59.1925 233.396C57.2565 233.396 55.5735 233.022 54.1435 232.274C52.7135 231.526 51.6025 230.459 50.8105 229.073C50.0405 227.687 49.6555 226.059 49.6555 224.189ZM80.0302 220.955L72.0112 208.877H77.0272L79.9642 213.233C80.4482 213.937 80.8992 214.663 81.3172 215.411C81.7572 216.137 82.2082 216.907 82.6702 217.721L88.2802 208.877H93.1972L85.3102 220.922L93.2302 233H88.2472L85.5412 229.007C84.9912 228.193 84.4962 227.401 84.0562 226.631C83.6162 225.861 83.1432 225.047 82.6372 224.189L76.7962 233H71.8462L80.0302 220.955ZM113.994 233H105.315V208.877H113.763C116.139 208.877 118.229 209.394 120.033 210.428C121.837 211.44 123.245 212.859 124.257 214.685C125.291 216.489 125.808 218.59 125.808 220.988C125.808 223.342 125.302 225.432 124.29 227.258C123.3 229.062 121.914 230.47 120.132 231.482C118.372 232.494 116.326 233 113.994 233ZM109.539 210.824V231.086L107.526 229.106H113.598C115.204 229.106 116.59 228.776 117.756 228.116C118.922 227.456 119.813 226.521 120.429 225.311C121.045 224.101 121.353 222.66 121.353 220.988C121.353 219.272 121.034 217.809 120.396 216.599C119.758 215.367 118.845 214.421 117.657 213.761C116.469 213.101 115.039 212.771 113.367 212.771H107.526L109.539 210.824ZM136.441 233.429C134.835 233.429 133.405 233.066 132.151 232.34C130.919 231.592 129.951 230.58 129.247 229.304C128.543 228.006 128.191 226.521 128.191 224.849C128.191 223.155 128.532 221.659 129.214 220.361C129.896 219.063 130.853 218.051 132.085 217.325C133.317 216.577 134.725 216.203 136.309 216.203C137.959 216.203 139.378 216.555 140.566 217.259C141.754 217.941 142.667 218.898 143.305 220.13C143.965 221.362 144.295 222.836 144.295 224.552V225.773L130.303 225.806L130.369 223.232H140.302C140.302 222.11 139.939 221.208 139.213 220.526C138.509 219.844 137.552 219.503 136.342 219.503C135.396 219.503 134.593 219.701 133.933 220.097C133.295 220.493 132.811 221.087 132.481 221.879C132.151 222.671 131.986 223.639 131.986 224.783C131.986 226.543 132.36 227.874 133.108 228.776C133.878 229.678 135.011 230.129 136.507 230.129C137.607 230.129 138.509 229.92 139.213 229.502C139.939 229.084 140.412 228.49 140.632 227.72H144.361C144.009 229.502 143.129 230.899 141.721 231.911C140.335 232.923 138.575 233.429 136.441 233.429ZM146.263 228.05H150.091C150.113 228.754 150.377 229.315 150.883 229.733C151.389 230.151 152.093 230.36 152.995 230.36C153.963 230.36 154.689 230.184 155.173 229.832C155.679 229.48 155.932 229.007 155.932 228.413C155.932 228.017 155.8 227.665 155.536 227.357C155.272 227.049 154.777 226.818 154.051 226.664L151.114 225.971C149.64 225.641 148.54 225.113 147.814 224.387C147.11 223.639 146.758 222.616 146.758 221.318C146.758 220.262 147.033 219.349 147.583 218.579C148.155 217.809 148.925 217.226 149.893 216.83C150.861 216.412 151.972 216.203 153.226 216.203C154.436 216.203 155.503 216.423 156.427 216.863C157.351 217.303 158.066 217.919 158.572 218.711C159.1 219.503 159.375 220.427 159.397 221.483H155.569C155.569 220.779 155.349 220.229 154.909 219.833C154.469 219.415 153.853 219.206 153.061 219.206C152.269 219.206 151.653 219.382 151.213 219.734C150.773 220.086 150.553 220.559 150.553 221.153C150.553 222.055 151.257 222.671 152.665 223.001L155.602 223.694C156.966 224.002 157.989 224.497 158.671 225.179C159.375 225.861 159.727 226.829 159.727 228.083C159.727 229.183 159.441 230.14 158.869 230.954C158.297 231.746 157.494 232.362 156.46 232.802C155.426 233.22 154.238 233.429 152.896 233.429C150.872 233.429 149.255 232.934 148.045 231.944C146.857 230.954 146.263 229.656 146.263 228.05ZM162.793 233V216.698H166.819V233H162.793ZM164.773 213.431C164.091 213.431 163.508 213.2 163.024 212.738C162.562 212.254 162.331 211.671 162.331 210.989C162.331 210.307 162.562 209.735 163.024 209.273C163.508 208.811 164.091 208.58 164.773 208.58C165.455 208.58 166.027 208.811 166.489 209.273C166.973 209.735 167.215 210.307 167.215 210.989C167.215 211.671 166.973 212.254 166.489 212.738C166.027 213.2 165.455 213.431 164.773 213.431ZM170.054 224.486C170.054 222.902 170.373 221.494 171.011 220.262C171.671 219.008 172.584 218.018 173.75 217.292C174.916 216.566 176.269 216.203 177.809 216.203C179.195 216.203 180.383 216.511 181.373 217.127C182.363 217.721 183.056 218.557 183.452 219.635L183.023 219.998L183.353 216.698H187.082V232.175C187.082 233.979 186.73 235.541 186.026 236.861C185.344 238.203 184.365 239.226 183.089 239.93C181.835 240.656 180.317 241.019 178.535 241.019C176.203 241.019 174.289 240.392 172.793 239.138C171.297 237.884 170.417 236.168 170.153 233.99H174.179C174.311 235.046 174.751 235.871 175.499 236.465C176.269 237.059 177.281 237.356 178.535 237.356C179.921 237.356 181.021 236.949 181.835 236.135C182.671 235.343 183.089 234.265 183.089 232.901V228.842L183.551 229.271C183.155 230.305 182.429 231.13 181.373 231.746C180.317 232.362 179.096 232.67 177.71 232.67C176.17 232.67 174.828 232.318 173.684 231.614C172.54 230.91 171.649 229.942 171.011 228.71C170.373 227.478 170.054 226.07 170.054 224.486ZM174.113 224.387C174.113 225.311 174.289 226.136 174.641 226.862C175.015 227.566 175.532 228.127 176.192 228.545C176.852 228.963 177.622 229.172 178.502 229.172C179.426 229.172 180.218 228.974 180.878 228.578C181.56 228.16 182.077 227.599 182.429 226.895C182.803 226.169 182.99 225.333 182.99 224.387C182.99 223.441 182.814 222.627 182.462 221.945C182.11 221.241 181.593 220.691 180.911 220.295C180.251 219.899 179.448 219.701 178.502 219.701C177.6 219.701 176.819 219.91 176.159 220.328C175.499 220.724 174.993 221.274 174.641 221.978C174.289 222.682 174.113 223.485 174.113 224.387ZM195.275 233H191.249V216.698H194.978L195.308 218.81C195.814 217.996 196.529 217.358 197.453 216.896C198.399 216.434 199.422 216.203 200.522 216.203C202.568 216.203 204.108 216.808 205.142 218.018C206.198 219.228 206.726 220.878 206.726 222.968V233H202.7V223.925C202.7 222.561 202.392 221.549 201.776 220.889C201.16 220.207 200.324 219.866 199.268 219.866C198.014 219.866 197.035 220.262 196.331 221.054C195.627 221.846 195.275 222.902 195.275 224.222V233ZM217.975 233.429C216.369 233.429 214.939 233.066 213.685 232.34C212.453 231.592 211.485 230.58 210.781 229.304C210.077 228.006 209.725 226.521 209.725 224.849C209.725 223.155 210.066 221.659 210.748 220.361C211.43 219.063 212.387 218.051 213.619 217.325C214.851 216.577 216.259 216.203 217.843 216.203C219.493 216.203 220.912 216.555 222.1 217.259C223.288 217.941 224.201 218.898 224.839 220.13C225.499 221.362 225.829 222.836 225.829 224.552V225.773L211.837 225.806L211.903 223.232H221.836C221.836 222.11 221.473 221.208 220.747 220.526C220.043 219.844 219.086 219.503 217.876 219.503C216.93 219.503 216.127 219.701 215.467 220.097C214.829 220.493 214.345 221.087 214.015 221.879C213.685 222.671 213.52 223.639 213.52 224.783C213.52 226.543 213.894 227.874 214.642 228.776C215.412 229.678 216.545 230.129 218.041 230.129C219.141 230.129 220.043 229.92 220.747 229.502C221.473 229.084 221.946 228.49 222.166 227.72H225.895C225.543 229.502 224.663 230.899 223.255 231.911C221.869 232.923 220.109 233.429 217.975 233.429ZM239.281 216.632V220.361H237.796C236.322 220.361 235.167 220.757 234.331 221.549C233.495 222.319 233.077 223.496 233.077 225.08V233H229.051V216.731H232.846L233.176 220.097H232.78C233 219.019 233.517 218.139 234.331 217.457C235.145 216.775 236.201 216.434 237.499 216.434C237.785 216.434 238.071 216.445 238.357 216.467C238.643 216.489 238.951 216.544 239.281 216.632ZM252.814 235.904V206.93H255.916V235.904H252.814ZM275.699 208.877V233H271.475V208.877H275.699ZM286.391 212.771H271.805V208.877H286.391V212.771ZM284.675 223.133H271.739V219.338H284.675V223.133ZM298.835 216.632V220.361H297.35C295.876 220.361 294.721 220.757 293.885 221.549C293.049 222.319 292.631 223.496 292.631 225.08V233H288.605V216.731H292.4L292.73 220.097H292.334C292.554 219.019 293.071 218.139 293.885 217.457C294.699 216.775 295.755 216.434 297.053 216.434C297.339 216.434 297.625 216.445 297.911 216.467C298.197 216.489 298.505 216.544 298.835 216.632ZM308.306 233.429C306.7 233.429 305.27 233.066 304.016 232.34C302.784 231.592 301.816 230.58 301.112 229.304C300.408 228.006 300.056 226.521 300.056 224.849C300.056 223.155 300.397 221.659 301.079 220.361C301.761 219.063 302.718 218.051 303.95 217.325C305.182 216.577 306.59 216.203 308.174 216.203C309.824 216.203 311.243 216.555 312.431 217.259C313.619 217.941 314.532 218.898 315.17 220.13C315.83 221.362 316.16 222.836 316.16 224.552V225.773L302.168 225.806L302.234 223.232H312.167C312.167 222.11 311.804 221.208 311.078 220.526C310.374 219.844 309.417 219.503 308.207 219.503C307.261 219.503 306.458 219.701 305.798 220.097C305.16 220.493 304.676 221.087 304.346 221.879C304.016 222.671 303.851 223.639 303.851 224.783C303.851 226.543 304.225 227.874 304.973 228.776C305.743 229.678 306.876 230.129 308.372 230.129C309.472 230.129 310.374 229.92 311.078 229.502C311.804 229.084 312.277 228.49 312.497 227.72H316.226C315.874 229.502 314.994 230.899 313.586 231.911C312.2 232.923 310.44 233.429 308.306 233.429ZM326.675 233.429C325.069 233.429 323.639 233.066 322.385 232.34C321.153 231.592 320.185 230.58 319.481 229.304C318.777 228.006 318.425 226.521 318.425 224.849C318.425 223.155 318.766 221.659 319.448 220.361C320.13 219.063 321.087 218.051 322.319 217.325C323.551 216.577 324.959 216.203 326.543 216.203C328.193 216.203 329.612 216.555 330.8 217.259C331.988 217.941 332.901 218.898 333.539 220.13C334.199 221.362 334.529 222.836 334.529 224.552V225.773L320.537 225.806L320.603 223.232H330.536C330.536 222.11 330.173 221.208 329.447 220.526C328.743 219.844 327.786 219.503 326.576 219.503C325.63 219.503 324.827 219.701 324.167 220.097C323.529 220.493 323.045 221.087 322.715 221.879C322.385 222.671 322.22 223.639 322.22 224.783C322.22 226.543 322.594 227.874 323.342 228.776C324.112 229.678 325.245 230.129 326.741 230.129C327.841 230.129 328.743 229.92 329.447 229.502C330.173 229.084 330.646 228.49 330.866 227.72H334.595C334.243 229.502 333.363 230.899 331.955 231.911C330.569 232.923 328.809 233.429 326.675 233.429ZM341.81 233H337.817V208.448H341.81V233ZM350.884 233.429C349.168 233.429 347.804 232.967 346.792 232.043C345.802 231.097 345.307 229.865 345.307 228.347C345.307 226.851 345.824 225.663 346.858 224.783C347.914 223.881 349.41 223.353 351.346 223.199L356.23 222.803V222.44C356.23 221.692 356.087 221.098 355.801 220.658C355.537 220.196 355.152 219.866 354.646 219.668C354.14 219.448 353.546 219.338 352.864 219.338C351.676 219.338 350.763 219.58 350.125 220.064C349.487 220.526 349.168 221.186 349.168 222.044H345.736C345.736 220.856 346.033 219.833 346.627 218.975C347.243 218.095 348.101 217.413 349.201 216.929C350.323 216.445 351.61 216.203 353.062 216.203C354.536 216.203 355.801 216.467 356.857 216.995C357.913 217.501 358.727 218.271 359.299 219.305C359.871 220.317 360.157 221.582 360.157 223.1V233H356.626L356.329 230.591C355.977 231.427 355.295 232.109 354.283 232.637C353.293 233.165 352.16 233.429 350.884 233.429ZM352.171 230.393C353.425 230.393 354.415 230.041 355.141 229.337C355.889 228.633 356.263 227.654 356.263 226.4V225.542L352.864 225.806C351.61 225.916 350.719 226.18 350.191 226.598C349.663 226.994 349.399 227.522 349.399 228.182C349.399 228.908 349.641 229.458 350.125 229.832C350.609 230.206 351.291 230.393 352.171 230.393ZM368.138 233H364.112V216.698H367.841L368.171 218.81C368.677 217.996 369.392 217.358 370.316 216.896C371.262 216.434 372.285 216.203 373.385 216.203C375.431 216.203 376.971 216.808 378.005 218.018C379.061 219.228 379.589 220.878 379.589 222.968V233H375.563V223.925C375.563 222.561 375.255 221.549 374.639 220.889C374.023 220.207 373.187 219.866 372.131 219.866C370.877 219.866 369.898 220.262 369.194 221.054C368.49 221.846 368.138 222.902 368.138 224.222V233ZM382.588 224.816C382.588 223.144 382.929 221.659 383.611 220.361C384.315 219.063 385.272 218.051 386.482 217.325C387.714 216.577 389.133 216.203 390.739 216.203C392.961 216.203 394.776 216.786 396.184 217.952C397.614 219.096 398.439 220.647 398.659 222.605H394.633C394.391 221.681 393.94 220.988 393.28 220.526C392.642 220.042 391.839 219.8 390.871 219.8C390.035 219.8 389.287 220.009 388.627 220.427C387.989 220.823 387.494 221.395 387.142 222.143C386.79 222.891 386.614 223.782 386.614 224.816C386.614 225.85 386.779 226.741 387.109 227.489C387.439 228.237 387.912 228.82 388.528 229.238C389.166 229.634 389.914 229.832 390.772 229.832C391.784 229.832 392.62 229.59 393.28 229.106C393.962 228.622 394.413 227.929 394.633 227.027H398.692C398.516 228.303 398.065 229.425 397.339 230.393C396.635 231.339 395.722 232.087 394.6 232.637C393.478 233.165 392.202 233.429 390.772 233.429C389.122 233.429 387.681 233.077 386.449 232.373C385.217 231.647 384.26 230.646 383.578 229.37C382.918 228.072 382.588 226.554 382.588 224.816ZM408.981 233.429C407.375 233.429 405.945 233.066 404.691 232.34C403.459 231.592 402.491 230.58 401.787 229.304C401.083 228.006 400.731 226.521 400.731 224.849C400.731 223.155 401.072 221.659 401.754 220.361C402.436 219.063 403.393 218.051 404.625 217.325C405.857 216.577 407.265 216.203 408.849 216.203C410.499 216.203 411.918 216.555 413.106 217.259C414.294 217.941 415.207 218.898 415.845 220.13C416.505 221.362 416.835 222.836 416.835 224.552V225.773L402.843 225.806L402.909 223.232H412.842C412.842 222.11 412.479 221.208 411.753 220.526C411.049 219.844 410.092 219.503 408.882 219.503C407.936 219.503 407.133 219.701 406.473 220.097C405.835 220.493 405.351 221.087 405.021 221.879C404.691 222.671 404.526 223.639 404.526 224.783C404.526 226.543 404.9 227.874 405.648 228.776C406.418 229.678 407.551 230.129 409.047 230.129C410.147 230.129 411.049 229.92 411.753 229.502C412.479 229.084 412.952 228.49 413.172 227.72H416.901C416.549 229.502 415.669 230.899 414.261 231.911C412.875 232.923 411.115 233.429 408.981 233.429ZM430.288 216.632V220.361H428.803C427.329 220.361 426.174 220.757 425.338 221.549C424.502 222.319 424.084 223.496 424.084 225.08V233H420.058V216.731H423.853L424.183 220.097H423.787C424.007 219.019 424.524 218.139 425.338 217.457C426.152 216.775 427.208 216.434 428.506 216.434C428.792 216.434 429.078 216.445 429.364 216.467C429.65 216.489 429.958 216.544 430.288 216.632ZM443.821 235.904V206.93H446.923V235.904H443.821ZM466.706 208.877V233H462.482V208.877H466.706ZM477.398 212.771H462.812V208.877H477.398V212.771ZM475.682 223.133H462.746V219.338H475.682V223.133ZM490.667 216.698H494.693V233H490.964L490.667 230.822C490.183 231.592 489.457 232.219 488.489 232.703C487.521 233.187 486.487 233.429 485.387 233.429C483.517 233.429 482.054 232.835 480.998 231.647C479.942 230.459 479.414 228.875 479.414 226.895V216.698H483.44V225.476C483.44 227.016 483.737 228.127 484.331 228.809C484.925 229.491 485.783 229.832 486.905 229.832C488.181 229.832 489.127 229.458 489.743 228.71C490.359 227.94 490.667 226.785 490.667 225.245V216.698ZM502.91 233H498.917V208.448H502.91V233ZM511.193 233H507.2V208.448H511.193V233ZM514.162 228.05H517.99C518.012 228.754 518.276 229.315 518.782 229.733C519.288 230.151 519.992 230.36 520.894 230.36C521.862 230.36 522.588 230.184 523.072 229.832C523.578 229.48 523.831 229.007 523.831 228.413C523.831 228.017 523.699 227.665 523.435 227.357C523.171 227.049 522.676 226.818 521.95 226.664L519.013 225.971C517.539 225.641 516.439 225.113 515.713 224.387C515.009 223.639 514.657 222.616 514.657 221.318C514.657 220.262 514.932 219.349 515.482 218.579C516.054 217.809 516.824 217.226 517.792 216.83C518.76 216.412 519.871 216.203 521.125 216.203C522.335 216.203 523.402 216.423 524.326 216.863C525.25 217.303 525.965 217.919 526.471 218.711C526.999 219.503 527.274 220.427 527.296 221.483H523.468C523.468 220.779 523.248 220.229 522.808 219.833C522.368 219.415 521.752 219.206 520.96 219.206C520.168 219.206 519.552 219.382 519.112 219.734C518.672 220.086 518.452 220.559 518.452 221.153C518.452 222.055 519.156 222.671 520.564 223.001L523.501 223.694C524.865 224.002 525.888 224.497 526.57 225.179C527.274 225.861 527.626 226.829 527.626 228.083C527.626 229.183 527.34 230.14 526.768 230.954C526.196 231.746 525.393 232.362 524.359 232.802C523.325 233.22 522.137 233.429 520.795 233.429C518.771 233.429 517.154 232.934 515.944 231.944C514.756 230.954 514.162 229.656 514.162 228.05ZM529.074 216.698H539.37V220.064H529.074V216.698ZM536.235 233H532.209V211.616H536.235V233ZM546.66 233.429C544.944 233.429 543.58 232.967 542.568 232.043C541.578 231.097 541.083 229.865 541.083 228.347C541.083 226.851 541.6 225.663 542.634 224.783C543.69 223.881 545.186 223.353 547.122 223.199L552.006 222.803V222.44C552.006 221.692 551.863 221.098 551.577 220.658C551.313 220.196 550.928 219.866 550.422 219.668C549.916 219.448 549.322 219.338 548.64 219.338C547.452 219.338 546.539 219.58 545.901 220.064C545.263 220.526 544.944 221.186 544.944 222.044H541.512C541.512 220.856 541.809 219.833 542.403 218.975C543.019 218.095 543.877 217.413 544.977 216.929C546.099 216.445 547.386 216.203 548.838 216.203C550.312 216.203 551.577 216.467 552.633 216.995C553.689 217.501 554.503 218.271 555.075 219.305C555.647 220.317 555.933 221.582 555.933 223.1V233H552.402L552.105 230.591C551.753 231.427 551.071 232.109 550.059 232.637C549.069 233.165 547.936 233.429 546.66 233.429ZM547.947 230.393C549.201 230.393 550.191 230.041 550.917 229.337C551.665 228.633 552.039 227.654 552.039 226.4V225.542L548.64 225.806C547.386 225.916 546.495 226.18 545.967 226.598C545.439 226.994 545.175 227.522 545.175 228.182C545.175 228.908 545.417 229.458 545.901 229.832C546.385 230.206 547.067 230.393 547.947 230.393ZM558.932 224.816C558.932 223.144 559.273 221.659 559.955 220.361C560.659 219.063 561.616 218.051 562.826 217.325C564.058 216.577 565.477 216.203 567.083 216.203C569.305 216.203 571.12 216.786 572.528 217.952C573.958 219.096 574.783 220.647 575.003 222.605H570.977C570.735 221.681 570.284 220.988 569.624 220.526C568.986 220.042 568.183 219.8 567.215 219.8C566.379 219.8 565.631 220.009 564.971 220.427C564.333 220.823 563.838 221.395 563.486 222.143C563.134 222.891 562.958 223.782 562.958 224.816C562.958 225.85 563.123 226.741 563.453 227.489C563.783 228.237 564.256 228.82 564.872 229.238C565.51 229.634 566.258 229.832 567.116 229.832C568.128 229.832 568.964 229.59 569.624 229.106C570.306 228.622 570.757 227.929 570.977 227.027H575.036C574.86 228.303 574.409 229.425 573.683 230.393C572.979 231.339 572.066 232.087 570.944 232.637C569.822 233.165 568.546 233.429 567.116 233.429C565.466 233.429 564.025 233.077 562.793 232.373C561.561 231.647 560.604 230.646 559.922 229.37C559.262 228.072 558.932 226.554 558.932 224.816ZM582.091 233H578.098V208.448H582.091V223.529L588.427 216.698H593.476L587.272 223.166L593.344 233H588.724L584.467 226.136L582.091 228.611V233ZM613.956 233H605.277V208.877H613.725C616.101 208.877 618.191 209.394 619.995 210.428C621.799 211.44 623.207 212.859 624.219 214.685C625.253 216.489 625.77 218.59 625.77 220.988C625.77 223.342 625.264 225.432 624.252 227.258C623.262 229.062 621.876 230.47 620.094 231.482C618.334 232.494 616.288 233 613.956 233ZM609.501 210.824V231.086L607.488 229.106H613.56C615.166 229.106 616.552 228.776 617.718 228.116C618.884 227.456 619.775 226.521 620.391 225.311C621.007 224.101 621.315 222.66 621.315 220.988C621.315 219.272 620.996 217.809 620.358 216.599C619.72 215.367 618.807 214.421 617.619 213.761C616.431 213.101 615.001 212.771 613.329 212.771H607.488L609.501 210.824ZM636.404 233.429C634.798 233.429 633.368 233.066 632.114 232.34C630.882 231.592 629.914 230.58 629.21 229.304C628.506 228.006 628.154 226.521 628.154 224.849C628.154 223.155 628.495 221.659 629.177 220.361C629.859 219.063 630.816 218.051 632.048 217.325C633.28 216.577 634.688 216.203 636.272 216.203C637.922 216.203 639.341 216.555 640.529 217.259C641.717 217.941 642.63 218.898 643.268 220.13C643.928 221.362 644.258 222.836 644.258 224.552V225.773L630.266 225.806L630.332 223.232H640.265C640.265 222.11 639.902 221.208 639.176 220.526C638.472 219.844 637.515 219.503 636.305 219.503C635.359 219.503 634.556 219.701 633.896 220.097C633.258 220.493 632.774 221.087 632.444 221.879C632.114 222.671 631.949 223.639 631.949 224.783C631.949 226.543 632.323 227.874 633.071 228.776C633.841 229.678 634.974 230.129 636.47 230.129C637.57 230.129 638.472 229.92 639.176 229.502C639.902 229.084 640.375 228.49 640.595 227.72H644.324C643.972 229.502 643.092 230.899 641.684 231.911C640.298 232.923 638.538 233.429 636.404 233.429ZM651.424 233L644.956 216.698H649.246L652.084 224.189C652.436 225.157 652.733 226.048 652.975 226.862C653.239 227.654 653.426 228.27 653.536 228.71C653.646 228.204 653.833 227.555 654.097 226.763C654.383 225.949 654.702 225.091 655.054 224.189L658.024 216.698H662.182L655.384 233H651.424ZM671.016 233.429C669.41 233.429 667.98 233.066 666.726 232.34C665.494 231.592 664.526 230.58 663.822 229.304C663.118 228.006 662.766 226.521 662.766 224.849C662.766 223.155 663.107 221.659 663.789 220.361C664.471 219.063 665.428 218.051 666.66 217.325C667.892 216.577 669.3 216.203 670.884 216.203C672.534 216.203 673.953 216.555 675.141 217.259C676.329 217.941 677.242 218.898 677.88 220.13C678.54 221.362 678.87 222.836 678.87 224.552V225.773L664.878 225.806L664.944 223.232H674.877C674.877 222.11 674.514 221.208 673.788 220.526C673.084 219.844 672.127 219.503 670.917 219.503C669.971 219.503 669.168 219.701 668.508 220.097C667.87 220.493 667.386 221.087 667.056 221.879C666.726 222.671 666.561 223.639 666.561 224.783C666.561 226.543 666.935 227.874 667.683 228.776C668.453 229.678 669.586 230.129 671.082 230.129C672.182 230.129 673.084 229.92 673.788 229.502C674.514 229.084 674.987 228.49 675.207 227.72H678.936C678.584 229.502 677.704 230.899 676.296 231.911C674.91 232.923 673.15 233.429 671.016 233.429ZM686.151 233H682.158V208.448H686.151V233ZM689.417 224.816C689.417 223.122 689.791 221.637 690.539 220.361C691.287 219.063 692.321 218.051 693.641 217.325C694.961 216.599 696.457 216.236 698.129 216.236C699.823 216.236 701.319 216.599 702.617 217.325C703.937 218.051 704.971 219.063 705.719 220.361C706.467 221.637 706.841 223.122 706.841 224.816C706.841 226.51 706.467 228.006 705.719 229.304C704.971 230.58 703.937 231.581 702.617 232.307C701.319 233.033 699.823 233.396 698.129 233.396C696.457 233.396 694.961 233.033 693.641 232.307C692.321 231.581 691.287 230.58 690.539 229.304C689.791 228.006 689.417 226.51 689.417 224.816ZM693.443 224.816C693.443 225.806 693.641 226.675 694.037 227.423C694.455 228.171 695.005 228.754 695.687 229.172C696.391 229.59 697.205 229.799 698.129 229.799C699.053 229.799 699.867 229.59 700.571 229.172C701.275 228.754 701.825 228.171 702.221 227.423C702.617 226.675 702.815 225.806 702.815 224.816C702.815 223.804 702.617 222.935 702.221 222.209C701.825 221.461 701.275 220.878 700.571 220.46C699.867 220.042 699.053 219.833 698.129 219.833C697.205 219.833 696.391 220.042 695.687 220.46C695.005 220.878 694.455 221.461 694.037 222.209C693.641 222.935 693.443 223.804 693.443 224.816ZM710.032 240.557V216.698H713.761L714.025 219.173C714.509 218.227 715.257 217.501 716.269 216.995C717.281 216.467 718.392 216.203 719.602 216.203C721.164 216.203 722.506 216.555 723.628 217.259C724.772 217.963 725.663 218.942 726.301 220.196C726.939 221.45 727.258 222.935 727.258 224.651C727.258 226.345 726.961 227.852 726.367 229.172C725.773 230.492 724.904 231.537 723.76 232.307C722.638 233.055 721.263 233.429 719.635 233.429C718.425 233.429 717.314 233.198 716.302 232.736C715.312 232.274 714.564 231.636 714.058 230.822V240.557H710.032ZM714.091 224.849C714.091 225.817 714.278 226.675 714.652 227.423C715.026 228.171 715.554 228.765 716.236 229.205C716.94 229.623 717.754 229.832 718.678 229.832C719.624 229.832 720.438 229.623 721.12 229.205C721.802 228.765 722.319 228.171 722.671 227.423C723.023 226.675 723.199 225.817 723.199 224.849C723.199 223.881 723.023 223.023 722.671 222.275C722.319 221.527 721.802 220.944 721.12 220.526C720.438 220.086 719.624 219.866 718.678 219.866C717.754 219.866 716.94 220.075 716.236 220.493C715.554 220.911 715.026 221.494 714.652 222.242C714.278 222.99 714.091 223.859 714.091 224.849ZM737.757 233.429C736.151 233.429 734.721 233.066 733.467 232.34C732.235 231.592 731.267 230.58 730.563 229.304C729.859 228.006 729.507 226.521 729.507 224.849C729.507 223.155 729.848 221.659 730.53 220.361C731.212 219.063 732.169 218.051 733.401 217.325C734.633 216.577 736.041 216.203 737.625 216.203C739.275 216.203 740.694 216.555 741.882 217.259C743.07 217.941 743.983 218.898 744.621 220.13C745.281 221.362 745.611 222.836 745.611 224.552V225.773L731.619 225.806L731.685 223.232H741.618C741.618 222.11 741.255 221.208 740.529 220.526C739.825 219.844 738.868 219.503 737.658 219.503C736.712 219.503 735.909 219.701 735.249 220.097C734.611 220.493 734.127 221.087 733.797 221.879C733.467 222.671 733.302 223.639 733.302 224.783C733.302 226.543 733.676 227.874 734.424 228.776C735.194 229.678 736.327 230.129 737.823 230.129C738.923 230.129 739.825 229.92 740.529 229.502C741.255 229.084 741.728 228.49 741.948 227.72H745.677C745.325 229.502 744.445 230.899 743.037 231.911C741.651 232.923 739.891 233.429 737.757 233.429ZM759.063 216.632V220.361H757.578C756.104 220.361 754.949 220.757 754.113 221.549C753.277 222.319 752.859 223.496 752.859 225.08V233H748.833V216.731H752.628L752.958 220.097H752.562C752.782 219.019 753.299 218.139 754.113 217.457C754.927 216.775 755.983 216.434 757.281 216.434C757.567 216.434 757.853 216.445 758.139 216.467C758.425 216.489 758.733 216.544 759.063 216.632Z" fill="#EEE9E1"/>
<defs>
<clipPath id="clip0_990_194">
<rect width="250" height="170" fill="white" transform="translate(255)"/>
</clipPath>
</defs>
</svg>
