<svg width="20" height="20" viewBox="0 0 20 20" fill="none" xmlns="http://www.w3.org/2000/svg">
<g clip-path="url(#clip0_822_909)">
<path d="M13.125 8.68164C14.4 9.59711 15.9304 10.089 17.5 10.0879V6.96289C16.3397 6.96289 15.2269 6.50195 14.4064 5.68148C13.5859 4.86101 13.125 3.74821 13.125 2.58789H10V12.5879C9.99997 12.9794 9.8949 13.3636 9.69574 13.7007C9.49658 14.0377 9.21063 14.3151 8.86772 14.5039C8.52482 14.6927 8.13752 14.7861 7.74623 14.7742C7.35495 14.7624 6.97401 14.6457 6.64317 14.4365C6.31233 14.2272 6.04371 13.933 5.86532 13.5846C5.68693 13.2361 5.60532 12.8462 5.62901 12.4554C5.65269 12.0647 5.78079 11.6874 5.99996 11.3631C6.21912 11.0387 6.52131 10.7791 6.875 10.6113V7.36133C5.88014 7.53969 4.9568 7.99815 4.21338 8.6829C3.46995 9.36765 2.93729 10.2503 2.67791 11.2271C2.41853 12.204 2.44321 13.2346 2.74904 14.1979C3.05487 15.1613 3.62917 16.0174 4.40451 16.6658C5.17986 17.3142 6.12407 17.7279 7.12633 17.8585C8.12859 17.989 9.14729 17.8309 10.0629 17.4028C10.9784 16.9747 11.7528 16.2942 12.2952 15.4414C12.8376 14.5885 13.1255 13.5986 13.125 12.5879V8.68164Z" stroke="white" stroke-width="1.5" stroke-linecap="round" stroke-linejoin="round"/>
</g>
<defs>
<clipPath id="clip0_822_909">
<rect width="20" height="20" fill="white"/>
</clipPath>
</defs>
</svg>
