<svg width="21" height="20" viewBox="0 0 21 20" fill="none" xmlns="http://www.w3.org/2000/svg">
<g clip-path="url(#clip0_822_920)">
<path d="M10.2006 7.2747C10.2006 5.55595 11.6459 4.12626 13.3647 4.1497C13.9666 4.15665 14.5537 4.33729 15.0554 4.66991C15.5571 5.00254 15.9521 5.47298 16.1928 6.0247H18.9506L16.4272 8.54813C16.2643 11.083 15.1422 13.4606 13.289 15.1977C11.4359 16.9348 8.99067 17.9009 6.45062 17.8997C3.95062 17.8997 3.32562 16.9622 3.32562 16.9622C3.32562 16.9622 5.82562 16.0247 7.07562 14.1497C7.07562 14.1497 2.07562 11.6497 3.32562 4.7747C3.32562 4.7747 6.45062 7.8997 10.2006 8.5247V7.2747Z" stroke="white" stroke-width="1.5" stroke-linecap="round" stroke-linejoin="round"/>
</g>
<defs>
<clipPath id="clip0_822_920">
<rect width="20" height="20" fill="white" transform="translate(0.200195)"/>
</clipPath>
</defs>
</svg>
