<svg width="38" height="56" viewBox="0 0 38 56" fill="none" xmlns="http://www.w3.org/2000/svg">
<path opacity="0.5" d="M21.5 3C21.5 1.61929 20.3807 0.5 19 0.5C17.6193 0.5 16.5 1.61929 16.5 3L21.5 3ZM17.2322 54.7678C18.2085 55.7441 19.7915 55.7441 20.7678 54.7678L36.6777 38.8579C37.654 37.8816 37.654 36.2986 36.6777 35.3223C35.7014 34.346 34.1184 34.346 33.1421 35.3223L19 49.4645L4.85787 35.3223C3.88156 34.346 2.29864 34.346 1.32233 35.3223C0.346021 36.2986 0.346021 37.8816 1.32233 38.8579L17.2322 54.7678ZM16.5 3L16.5 53L21.5 53L21.5 3L16.5 3Z" fill="#7F7D79"/>
</svg>
