<svg width="153" height="154" viewBox="0 0 153 154" fill="none" xmlns="http://www.w3.org/2000/svg">
<g opacity="0.5">
<rect y="32.3525" width="5" height="5" rx="2.5" transform="rotate(-15 0 32.3525)" fill="#1C1C1C"/>
<rect x="12.8789" y="28.9014" width="5" height="5" rx="2.5" transform="rotate(-15 12.8789 28.9014)" fill="#1C1C1C"/>
<rect x="25.7578" y="25.4512" width="5" height="5" rx="2.5" transform="rotate(-15 25.7578 25.4512)" fill="#1C1C1C"/>
<rect x="38.6367" y="22" width="5" height="5" rx="2.5" transform="rotate(-15 38.6367 22)" fill="#1C1C1C"/>
<rect x="51.5156" y="18.5488" width="5" height="5" rx="2.5" transform="rotate(-15 51.5156 18.5488)" fill="#1C1C1C"/>
<rect x="64.3945" y="15.0977" width="5" height="5" rx="2.5" transform="rotate(-15 64.3945 15.0977)" fill="#1C1C1C"/>
<rect x="77.2734" y="11.6475" width="5" height="5" rx="2.5" transform="rotate(-15 77.2734 11.6475)" fill="#1C1C1C"/>
<rect x="90.1523" y="8.19629" width="5" height="5" rx="2.5" transform="rotate(-15 90.1523 8.19629)" fill="#1C1C1C"/>
<rect x="103.031" y="4.74512" width="5" height="5" rx="2.5" transform="rotate(-15 103.031 4.74512)" fill="#1C1C1C"/>
<rect x="115.91" y="1.29395" width="5" height="5" rx="2.5" transform="rotate(-15 115.91 1.29395)" fill="#1C1C1C"/>
<rect x="3.46875" y="45.2959" width="5" height="5" rx="2.5" transform="rotate(-15 3.46875 45.2959)" fill="#1C1C1C"/>
<rect x="16.3477" y="41.8447" width="5" height="5" rx="2.5" transform="rotate(-15 16.3477 41.8447)" fill="#1C1C1C"/>
<rect x="29.2266" y="38.3945" width="5" height="5" rx="2.5" transform="rotate(-15 29.2266 38.3945)" fill="#1C1C1C"/>
<rect x="42.1055" y="34.9434" width="5" height="5" rx="2.5" transform="rotate(-15 42.1055 34.9434)" fill="#1C1C1C"/>
<rect x="54.9844" y="31.4922" width="5" height="5" rx="2.5" transform="rotate(-15 54.9844 31.4922)" fill="#1C1C1C"/>
<rect x="67.8633" y="28.041" width="5" height="5" rx="2.5" transform="rotate(-15 67.8633 28.041)" fill="#1C1C1C"/>
<rect x="80.7422" y="24.5908" width="5" height="5" rx="2.5" transform="rotate(-15 80.7422 24.5908)" fill="#1C1C1C"/>
<rect x="93.6211" y="21.1396" width="5" height="5" rx="2.5" transform="rotate(-15 93.6211 21.1396)" fill="#1C1C1C"/>
<rect x="106.5" y="17.6885" width="5" height="5" rx="2.5" transform="rotate(-15 106.5 17.6885)" fill="#1C1C1C"/>
<rect x="119.379" y="14.2373" width="5" height="5" rx="2.5" transform="rotate(-15 119.379 14.2373)" fill="#1C1C1C"/>
<rect x="6.93555" y="58.2393" width="5" height="5" rx="2.5" transform="rotate(-15 6.93555 58.2393)" fill="#1C1C1C"/>
<rect x="19.8145" y="54.7881" width="5" height="5" rx="2.5" transform="rotate(-15 19.8145 54.7881)" fill="#1C1C1C"/>
<rect x="32.6934" y="51.3379" width="5" height="5" rx="2.5" transform="rotate(-15 32.6934 51.3379)" fill="#1C1C1C"/>
<rect x="45.5723" y="47.8867" width="5" height="5" rx="2.5" transform="rotate(-15 45.5723 47.8867)" fill="#1C1C1C"/>
<rect x="58.4512" y="44.4355" width="5" height="5" rx="2.5" transform="rotate(-15 58.4512 44.4355)" fill="#1C1C1C"/>
<rect x="71.3301" y="40.9844" width="5" height="5" rx="2.5" transform="rotate(-15 71.3301 40.9844)" fill="#1C1C1C"/>
<rect x="84.209" y="37.5342" width="5" height="5" rx="2.5" transform="rotate(-15 84.209 37.5342)" fill="#1C1C1C"/>
<rect x="97.0879" y="34.083" width="5" height="5" rx="2.5" transform="rotate(-15 97.0879 34.083)" fill="#1C1C1C"/>
<rect x="109.967" y="30.6318" width="5" height="5" rx="2.5" transform="rotate(-15 109.967 30.6318)" fill="#1C1C1C"/>
<rect x="122.846" y="27.1807" width="5" height="5" rx="2.5" transform="rotate(-15 122.846 27.1807)" fill="#1C1C1C"/>
<rect x="10.4043" y="71.1826" width="5" height="5" rx="2.5" transform="rotate(-15 10.4043 71.1826)" fill="#1C1C1C"/>
<rect x="23.2832" y="67.7314" width="5" height="5" rx="2.5" transform="rotate(-15 23.2832 67.7314)" fill="#1C1C1C"/>
<rect x="36.1621" y="64.2812" width="5" height="5" rx="2.5" transform="rotate(-15 36.1621 64.2812)" fill="#1C1C1C"/>
<rect x="49.041" y="60.8301" width="5" height="5" rx="2.5" transform="rotate(-15 49.041 60.8301)" fill="#1C1C1C"/>
<rect x="61.9199" y="57.3789" width="5" height="5" rx="2.5" transform="rotate(-15 61.9199 57.3789)" fill="#1C1C1C"/>
<rect x="74.7988" y="53.9277" width="5" height="5" rx="2.5" transform="rotate(-15 74.7988 53.9277)" fill="#1C1C1C"/>
<rect x="87.6777" y="50.4775" width="5" height="5" rx="2.5" transform="rotate(-15 87.6777 50.4775)" fill="#1C1C1C"/>
<rect x="100.557" y="47.0264" width="5" height="5" rx="2.5" transform="rotate(-15 100.557 47.0264)" fill="#1C1C1C"/>
<rect x="113.436" y="43.5752" width="5" height="5" rx="2.5" transform="rotate(-15 113.436 43.5752)" fill="#1C1C1C"/>
<rect x="126.314" y="40.124" width="5" height="5" rx="2.5" transform="rotate(-15 126.314 40.124)" fill="#1C1C1C"/>
<rect x="13.873" y="84.126" width="5" height="5" rx="2.5" transform="rotate(-15 13.873 84.126)" fill="#1C1C1C"/>
<rect x="26.752" y="80.6748" width="5" height="5" rx="2.5" transform="rotate(-15 26.752 80.6748)" fill="#1C1C1C"/>
<rect x="39.6309" y="77.2246" width="5" height="5" rx="2.5" transform="rotate(-15 39.6309 77.2246)" fill="#1C1C1C"/>
<rect x="52.5098" y="73.7734" width="5" height="5" rx="2.5" transform="rotate(-15 52.5098 73.7734)" fill="#1C1C1C"/>
<rect x="65.3887" y="70.3223" width="5" height="5" rx="2.5" transform="rotate(-15 65.3887 70.3223)" fill="#1C1C1C"/>
<rect x="78.2676" y="66.8711" width="5" height="5" rx="2.5" transform="rotate(-15 78.2676 66.8711)" fill="#1C1C1C"/>
<rect x="91.1465" y="63.4209" width="5" height="5" rx="2.5" transform="rotate(-15 91.1465 63.4209)" fill="#1C1C1C"/>
<rect x="104.025" y="59.9697" width="5" height="5" rx="2.5" transform="rotate(-15 104.025 59.9697)" fill="#1C1C1C"/>
<rect x="116.904" y="56.5186" width="5" height="5" rx="2.5" transform="rotate(-15 116.904 56.5186)" fill="#1C1C1C"/>
<rect x="129.783" y="53.0674" width="5" height="5" rx="2.5" transform="rotate(-15 129.783 53.0674)" fill="#1C1C1C"/>
<rect x="17.3418" y="97.0693" width="5" height="5" rx="2.5" transform="rotate(-15 17.3418 97.0693)" fill="#1C1C1C"/>
<rect x="30.2207" y="93.6182" width="5" height="5" rx="2.5" transform="rotate(-15 30.2207 93.6182)" fill="#1C1C1C"/>
<rect x="43.0996" y="90.168" width="5" height="5" rx="2.5" transform="rotate(-15 43.0996 90.168)" fill="#1C1C1C"/>
<rect x="55.9785" y="86.7168" width="5" height="5" rx="2.5" transform="rotate(-15 55.9785 86.7168)" fill="#1C1C1C"/>
<rect x="68.8574" y="83.2656" width="5" height="5" rx="2.5" transform="rotate(-15 68.8574 83.2656)" fill="#1C1C1C"/>
<rect x="81.7363" y="79.8145" width="5" height="5" rx="2.5" transform="rotate(-15 81.7363 79.8145)" fill="#1C1C1C"/>
<rect x="94.6152" y="76.3643" width="5" height="5" rx="2.5" transform="rotate(-15 94.6152 76.3643)" fill="#1C1C1C"/>
<rect x="107.494" y="72.9131" width="5" height="5" rx="2.5" transform="rotate(-15 107.494 72.9131)" fill="#1C1C1C"/>
<rect x="120.373" y="69.4619" width="5" height="5" rx="2.5" transform="rotate(-15 120.373 69.4619)" fill="#1C1C1C"/>
<rect x="133.252" y="66.0107" width="5" height="5" rx="2.5" transform="rotate(-15 133.252 66.0107)" fill="#1C1C1C"/>
<rect x="20.8086" y="110.013" width="5" height="5" rx="2.5" transform="rotate(-15 20.8086 110.013)" fill="#1C1C1C"/>
<rect x="33.6875" y="106.562" width="5" height="5" rx="2.5" transform="rotate(-15 33.6875 106.562)" fill="#1C1C1C"/>
<rect x="46.5664" y="103.111" width="5" height="5" rx="2.5" transform="rotate(-15 46.5664 103.111)" fill="#1C1C1C"/>
<rect x="59.4453" y="99.6602" width="5" height="5" rx="2.5" transform="rotate(-15 59.4453 99.6602)" fill="#1C1C1C"/>
<rect x="72.3242" y="96.209" width="5" height="5" rx="2.5" transform="rotate(-15 72.3242 96.209)" fill="#1C1C1C"/>
<rect x="85.2031" y="92.7578" width="5" height="5" rx="2.5" transform="rotate(-15 85.2031 92.7578)" fill="#1C1C1C"/>
<rect x="98.082" y="89.3076" width="5" height="5" rx="2.5" transform="rotate(-15 98.082 89.3076)" fill="#1C1C1C"/>
<rect x="110.961" y="85.8564" width="5" height="5" rx="2.5" transform="rotate(-15 110.961 85.8564)" fill="#1C1C1C"/>
<rect x="123.84" y="82.4053" width="5" height="5" rx="2.5" transform="rotate(-15 123.84 82.4053)" fill="#1C1C1C"/>
<rect x="136.719" y="78.9541" width="5" height="5" rx="2.5" transform="rotate(-15 136.719 78.9541)" fill="#1C1C1C"/>
<rect x="24.2773" y="122.956" width="5" height="5" rx="2.5" transform="rotate(-15 24.2773 122.956)" fill="#1C1C1C"/>
<rect x="37.1562" y="119.505" width="5" height="5" rx="2.5" transform="rotate(-15 37.1562 119.505)" fill="#1C1C1C"/>
<rect x="50.0352" y="116.055" width="5" height="5" rx="2.5" transform="rotate(-15 50.0352 116.055)" fill="#1C1C1C"/>
<rect x="62.9141" y="112.604" width="5" height="5" rx="2.5" transform="rotate(-15 62.9141 112.604)" fill="#1C1C1C"/>
<rect x="75.793" y="109.152" width="5" height="5" rx="2.5" transform="rotate(-15 75.793 109.152)" fill="#1C1C1C"/>
<rect x="88.6719" y="105.701" width="5" height="5" rx="2.5" transform="rotate(-15 88.6719 105.701)" fill="#1C1C1C"/>
<rect x="101.551" y="102.251" width="5" height="5" rx="2.5" transform="rotate(-15 101.551 102.251)" fill="#1C1C1C"/>
<rect x="114.43" y="98.7998" width="5" height="5" rx="2.5" transform="rotate(-15 114.43 98.7998)" fill="#1C1C1C"/>
<rect x="127.309" y="95.3486" width="5" height="5" rx="2.5" transform="rotate(-15 127.309 95.3486)" fill="#1C1C1C"/>
<rect x="140.188" y="91.8975" width="5" height="5" rx="2.5" transform="rotate(-15 140.188 91.8975)" fill="#1C1C1C"/>
<rect x="27.7461" y="135.899" width="5" height="5" rx="2.5" transform="rotate(-15 27.7461 135.899)" fill="#1C1C1C"/>
<rect x="40.625" y="132.448" width="5" height="5" rx="2.5" transform="rotate(-15 40.625 132.448)" fill="#1C1C1C"/>
<rect x="53.5039" y="128.998" width="5" height="5" rx="2.5" transform="rotate(-15 53.5039 128.998)" fill="#1C1C1C"/>
<rect x="66.3828" y="125.547" width="5" height="5" rx="2.5" transform="rotate(-15 66.3828 125.547)" fill="#1C1C1C"/>
<rect x="79.2617" y="122.096" width="5" height="5" rx="2.5" transform="rotate(-15 79.2617 122.096)" fill="#1C1C1C"/>
<rect x="92.1406" y="118.645" width="5" height="5" rx="2.5" transform="rotate(-15 92.1406 118.645)" fill="#1C1C1C"/>
<rect x="105.02" y="115.194" width="5" height="5" rx="2.5" transform="rotate(-15 105.02 115.194)" fill="#1C1C1C"/>
<rect x="117.898" y="111.743" width="5" height="5" rx="2.5" transform="rotate(-15 117.898 111.743)" fill="#1C1C1C"/>
<rect x="130.777" y="108.292" width="5" height="5" rx="2.5" transform="rotate(-15 130.777 108.292)" fill="#1C1C1C"/>
<rect x="143.656" y="104.841" width="5" height="5" rx="2.5" transform="rotate(-15 143.656 104.841)" fill="#1C1C1C"/>
<rect x="31.2129" y="148.843" width="5" height="5" rx="2.5" transform="rotate(-15 31.2129 148.843)" fill="#1C1C1C"/>
<rect x="44.0918" y="145.392" width="5" height="5" rx="2.5" transform="rotate(-15 44.0918 145.392)" fill="#1C1C1C"/>
<rect x="56.9707" y="141.941" width="5" height="5" rx="2.5" transform="rotate(-15 56.9707 141.941)" fill="#1C1C1C"/>
<rect x="69.8496" y="138.49" width="5" height="5" rx="2.5" transform="rotate(-15 69.8496 138.49)" fill="#1C1C1C"/>
<rect x="82.7285" y="135.039" width="5" height="5" rx="2.5" transform="rotate(-15 82.7285 135.039)" fill="#1C1C1C"/>
<rect x="95.6074" y="131.588" width="5" height="5" rx="2.5" transform="rotate(-15 95.6074 131.588)" fill="#1C1C1C"/>
<rect x="108.486" y="128.138" width="5" height="5" rx="2.5" transform="rotate(-15 108.486 128.138)" fill="#1C1C1C"/>
<rect x="121.365" y="124.687" width="5" height="5" rx="2.5" transform="rotate(-15 121.365 124.687)" fill="#1C1C1C"/>
<rect x="134.244" y="121.235" width="5" height="5" rx="2.5" transform="rotate(-15 134.244 121.235)" fill="#1C1C1C"/>
<rect x="147.123" y="117.784" width="5" height="5" rx="2.5" transform="rotate(-15 147.123 117.784)" fill="#1C1C1C"/>
</g>
</svg>
